<?xml version="1.0" encoding="UTF-8" standalone="no"?>
<!-- Created with Inkscape (http://www.inkscape.org/) -->

<svg
   width="84.275406"
   height="70.361671"
   viewBox="0 0 22.297868 18.616525"
   version="1.1"
   id="svg1"
   inkscape:version="1.3.2 (091e20e, 2023-11-25, custom)"
   sodipodi:docname="mil1.svg"
   xmlns:inkscape="http://www.inkscape.org/namespaces/inkscape"
   xmlns:sodipodi="http://sodipodi.sourceforge.net/DTD/sodipodi-0.dtd"
   xmlns="http://www.w3.org/2000/svg"
   xmlns:svg="http://www.w3.org/2000/svg">
  <sodipodi:namedview
     id="namedview1"
     pagecolor="#ffffff"
     bordercolor="#000000"
     borderopacity="0.25"
     inkscape:showpageshadow="2"
     inkscape:pageopacity="0.0"
     inkscape:pagecheckerboard="false"
     inkscape:deskcolor="#d1d1d1"
     inkscape:document-units="mm"
     inkscape:zoom="2.8202694"
     inkscape:cx="156.36804"
     inkscape:cy="62.228097"
     inkscape:window-width="1920"
     inkscape:window-height="991"
     inkscape:window-x="-9"
     inkscape:window-y="-9"
     inkscape:window-maximized="1"
     inkscape:current-layer="layer4" />
  <defs
     id="defs1" />
  <g
     inkscape:groupmode="layer"
     id="layer4"
     inkscape:label="Capa 2"
     transform="translate(-15.834177,-0.15612607)">
    <ellipse
       style="fill:#bd8a41;fill-opacity:1;stroke:#311b1b;stroke-width:0.528338;stroke-linecap:round;stroke-linejoin:round"
       id="path51"
       cx="27.339836"
       cy="10.779789"
       rx="8.4163094"
       ry="7.728693" />
    <g
       id="g65"
       inkscape:label="pelo">
      <path
         style="fill:#cccccc;fill-opacity:1;stroke:#311b1b;stroke-width:0.529167;stroke-linecap:round;stroke-linejoin:round"
         d="m 22.281042,2.2515579 c 0,0 -0.985057,-1.1492327 -1.899752,-0.4925283 -0.914696,0.6567044 -0.586343,1.9701132 -0.586343,1.9701132 0,0 -1.641761,-0.3048985 -1.923206,0.3518058 -0.281445,0.6567046 0.281445,1.6652147 0.281445,1.6652147 0,0 -1.618308,-0.1172686 -1.665215,0.9146956 -0.04691,1.0319639 0.680158,1.2899548 0.680158,1.2899548 0,0 -1.219594,0.3752599 -1.055418,1.0788716 0.164176,0.7036118 1.219594,0.9381493 1.219594,0.9381493 0,0 -1.477585,0.5628894 -0.938149,1.4541314 0.539436,0.891241 2.720632,0.37526 2.720632,0.37526 0.0036,-1.477464 0.51586,-3.6228263 2.218752,-5.3190013 0.547932,-0.5457706 3.73927,-1.9624192 4.816533,-2.0261741 0.927493,-0.054891 4.371171,-0.2584837 6.105004,0.8042417 0.526755,0.3228664 1.397119,0.7806768 2.002992,2.0866639 0.795365,1.7144459 1.270641,4.3986028 1.274329,5.2282418 0,0 1.852846,-0.211083 1.970114,-0.914695 0.117269,-0.703612 -0.515982,-1.125779 -0.515982,-1.125779 0,0 1.008509,-0.422167 0.867788,-1.1726865 -0.140724,-0.7505192 -1.219594,-1.0554176 -1.219594,-1.0554176 0,0 0.985057,-0.5863434 0.56289,-1.7590296 -0.422169,-1.1726865 -1.501039,-0.7270658 -1.501039,-0.7270658 0,0 0.656704,-1.3368623 0.09381,-2.0404743 -0.562888,-0.7036117 -1.782482,0.023453 -1.782482,0.023453 0,0 0.515983,-1.3368625 -0.07036,-1.7824833 -0.586343,-0.4456209 -1.993566,0.2814447 -1.993566,0.2814447 0,0 0.187629,-1.1726864 -0.680159,-1.59485351 -0.867789,-0.4221671 -2.063927,0.91469541 -2.063927,0.91469541 0,0 -0.140724,-1.14923268 -1.008513,-1.19614016 -0.867785,-0.0469075 -1.688668,1.17268646 -1.688668,1.17268646 0,0 -0.375259,-0.93814916 -1.102324,-0.84433426 -0.727066,0.0938149 -0.985057,1.10232526 -0.985057,1.10232526 0,0 -0.515982,-1.05541779 -1.102325,-0.8443342 -0.586343,0.2110835 -1.031964,1.2430476 -1.031964,1.2430476 z"
         id="path52"
         sodipodi:nodetypes="cscscscscscsssscscscscscscscscscscc" />
      <path
         style="fill:#cccccc;fill-opacity:1;stroke:#311b1b;stroke-width:0.529167;stroke-linecap:round;stroke-linejoin:round"
         d="m 19.466594,4.8080144 c 0.820881,0.164176 0.867788,0.5863431 0.867788,0.5863431"
         id="path53" />
      <path
         style="fill:#cccccc;fill-opacity:1;stroke:#311b1b;stroke-width:0.529167;stroke-linecap:round;stroke-linejoin:round"
         d="M 23.219191,4.0340412 C 22.984654,3.3538832 22.281042,3.1427996 22.281042,3.1427996"
         id="path54" />
      <path
         style="fill:#cccccc;fill-opacity:1;stroke:#311b1b;stroke-width:0.529167;stroke-linecap:round;stroke-linejoin:round"
         d="M 26.361991,3.6353279 C 26.784157,2.8613549 26.54962,2.4626415 26.54962,2.4626415"
         id="path55" />
      <path
         style="fill:#cccccc;fill-opacity:1;stroke:#311b1b;stroke-width:0.529167;stroke-linecap:round;stroke-linejoin:round"
         d="M 29.598604,3.5884204 C 29.786236,2.8848087 29.50479,2.3922803 29.50479,2.3922803"
         id="path56" />
      <path
         style="fill:#cccccc;fill-opacity:1;stroke:#311b1b;stroke-width:0.529167;stroke-linecap:round;stroke-linejoin:round"
         d="M 31.990884,4.2685784 C 32.295785,3.9167726 32.319237,3.0958922 32.319237,3.0958922"
         id="path57" />
      <path
         style="fill:#cccccc;fill-opacity:1;stroke:#311b1b;stroke-width:0.529167;stroke-linecap:round;stroke-linejoin:round"
         d="M 35.180592,7.8804526 C 35.649667,7.669369 36.071833,7.1299334 36.071833,7.1299334"
         id="path58" />
      <path
         style="fill:#cccccc;fill-opacity:1;stroke:#311b1b;stroke-width:0.529167;stroke-linecap:round;stroke-linejoin:round"
         d="m 17.871741,8.9124167 c 0.586343,-0.422167 1.219594,-0.1172686 1.219594,-0.1172686"
         id="path59" />
    </g>
    <g
       id="g63"
       inkscape:label="ojoizdo">
      <path
         style="fill:#ffffff;fill-opacity:1;stroke:#311b1b;stroke-width:0.257107;stroke-linecap:round;stroke-linejoin:round;stroke-dasharray:none"
         d="m 23.611414,9.8292484 c 0,0 0.346536,-0.6295826 1.363042,-0.6295826 1.016507,0 1.43235,0.5705595 1.43235,0.5705595 0,0 -0.485151,0.6689317 -1.386144,0.6492577 -0.900996,-0.01967 -1.409248,-0.5902346 -1.409248,-0.5902346 z"
         id="path60" />
      <ellipse
         style="fill:#000000;fill-opacity:1;stroke:#311b1b;stroke-width:0.2;stroke-linecap:round;stroke-linejoin:round;stroke-dasharray:none"
         id="path62"
         cx="25.259665"
         cy="9.8036585"
         rx="0.30489844"
         ry="0.35180593" />
    </g>
    <g
       id="g64"
       inkscape:label="ojodcho">
      <path
         style="fill:#ffffff;fill-opacity:1;stroke:#311b1b;stroke-width:0.257107;stroke-linecap:round;stroke-linejoin:round;stroke-dasharray:none"
         d="m 29.216855,9.946517 c 0,0 0.346536,-0.6295826 1.363042,-0.6295826 1.016507,0 1.43235,0.5705595 1.43235,0.5705595 0,0 -0.485151,0.6689321 -1.386144,0.6492581 -0.900996,-0.01967 -1.409248,-0.590235 -1.409248,-0.590235 z"
         id="path63" />
      <ellipse
         style="fill:#000000;fill-opacity:1;stroke:#311b1b;stroke-width:0.2;stroke-linecap:round;stroke-linejoin:round;stroke-dasharray:none"
         id="ellipse63"
         cx="30.865107"
         cy="9.920927"
         rx="0.30489844"
         ry="0.35180593" />
    </g>
    <g
       id="g68"
       inkscape:label="gafas">
      <rect
         style="fill:#000000;fill-opacity:0.22561;stroke:#eed215;stroke-width:0.1;stroke-linecap:round;stroke-linejoin:round;stroke-dasharray:none;stroke-opacity:1"
         id="rect65"
         width="4.0574951"
         height="2.4157338"
         x="22.914293"
         y="8.5840645" />
      <rect
         style="fill:#000000;fill-opacity:0.22561;stroke:#eed215;stroke-width:0.1;stroke-linecap:round;stroke-linejoin:round;stroke-dasharray:none;stroke-opacity:1"
         id="rect66"
         width="4.0574951"
         height="2.4157338"
         x="28.590096"
         y="8.6778793" />
      <path
         style="fill:none;fill-opacity:0.22561;stroke:#eed215;stroke-width:0.1;stroke-linecap:round;stroke-linejoin:round;stroke-dasharray:none;stroke-opacity:1"
         d="m 26.995241,9.8271122 c 0.754758,-0.6289642 1.675885,-0.024528 1.618308,0.023453"
         id="path66"
         sodipodi:nodetypes="cc" />
      <path
         style="fill:none;fill-opacity:0.22561;stroke:#eed215;stroke-width:0.1;stroke-linecap:round;stroke-linejoin:round;stroke-dasharray:none;stroke-opacity:1"
         d="m 22.88632,9.7515626 -3.316857,-0.746293 c 0,0 -0.746293,-0.34827 -1.127732,0.4643601"
         id="path67" />
      <path
         style="fill:none;fill-opacity:0.22561;stroke:#eed215;stroke-width:0.1;stroke-linecap:round;stroke-linejoin:round;stroke-dasharray:none;stroke-opacity:1"
         d="m 32.671051,9.8842371 2.189128,-0.8457988 c 0,0 0.679956,-0.2819331 0.895551,0.2487641"
         id="path68" />
      <path
         style="fill:none;fill-opacity:0.22561;stroke:#000000;stroke-width:0.4;stroke-linecap:round;stroke-linejoin:round;stroke-dasharray:none;stroke-opacity:1"
         d="m 23.993164,13.720431 c 1.348414,0.878568 3.502852,0.777699 4.064768,0.799581 1.901147,0.07404 3.704607,-0.800194 3.510787,-0.940303"
         id="path69"
         sodipodi:nodetypes="csc" />
      <path
         style="fill:none;fill-opacity:0.22561;stroke:#000000;stroke-width:0.4;stroke-linecap:round;stroke-linejoin:round;stroke-dasharray:none;stroke-opacity:1"
         d="m 23.477182,14.072237 c 0.514208,-0.479159 0.592109,-0.794703 0.773973,-1.149233"
         id="path70"
         sodipodi:nodetypes="cc" />
      <path
         style="fill:none;fill-opacity:0.22561;stroke:#000000;stroke-width:0.4;stroke-linecap:round;stroke-linejoin:round;stroke-dasharray:none;stroke-opacity:1"
         d="M 32.201969,8.3026198 C 31.709439,7.4582854 30.489847,7.2002944 30.489847,7.2002944"
         id="path72" />
      <path
         style="fill:none;fill-opacity:0.22561;stroke:#000000;stroke-width:0.4;stroke-linecap:round;stroke-linejoin:round;stroke-dasharray:none;stroke-opacity:1"
         d="m 23.289553,8.4667959 c 0.49253,-0.8443344 1.712122,-1.1023254 1.712122,-1.1023254"
         id="path73" />
    </g>
    <path
       style="fill:none;fill-opacity:1;stroke:#000000;stroke-width:0.33;stroke-linecap:round;stroke-linejoin:round;stroke-dasharray:none;stroke-opacity:1"
       d="m 27.347047,12.805736 c 0.375259,0.117268 0.985057,0.04691 0.985057,-0.281445 0,-0.328352 -0.445622,-1.078872 -0.445622,-1.078872"
       id="path76" />
  </g>
  <g
     inkscape:label="Capa 1"
     inkscape:groupmode="layer"
     id="layer1"
     transform="translate(-15.834177,-0.15612607)">
    <g
       id="g13"
       style="display:none">
      <path
         style="fill:none;stroke:#0c0606;stroke-width:0.4;stroke-linejoin:round"
         d="m 11.482184,7.9486474 c 0,0 1.133124,-0.5628456 2.609965,-0.6581258"
         id="path7"
         sodipodi:nodetypes="cc" />
      <path
         style="fill:none;stroke:#0c0606;stroke-width:0.4;stroke-linejoin:round"
         d="m 20.271843,8.078412 c 0,0 -1.133124,-0.5628456 -2.609965,-0.6581258"
         id="path10"
         sodipodi:nodetypes="cc" />
    </g>
  </g>
</svg>
