<?xml version="1.0" encoding="UTF-8" standalone="no"?>
<!-- Created with Inkscape (http://www.inkscape.org/) -->

<svg
   width="38.636765"
   height="39.088745"
   viewBox="0 0 10.222644 10.34223"
   version="1.1"
   id="svg1"
   xml:space="preserve"
   inkscape:version="1.3.2 (091e20e, 2023-11-25, custom)"
   sodipodi:docname="mil3Face.svg"
   inkscape:export-filename="..\..\..\Dev\mil-scape\src\assets\mils\mil3.png"
   inkscape:export-xdpi="96"
   inkscape:export-ydpi="96"
   xmlns:inkscape="http://www.inkscape.org/namespaces/inkscape"
   xmlns:sodipodi="http://sodipodi.sourceforge.net/DTD/sodipodi-0.dtd"
   xmlns="http://www.w3.org/2000/svg"
   xmlns:svg="http://www.w3.org/2000/svg"><sodipodi:namedview
     id="namedview1"
     pagecolor="#ffffff"
     bordercolor="#000000"
     borderopacity="0.25"
     inkscape:showpageshadow="2"
     inkscape:pageopacity="0.0"
     inkscape:pagecheckerboard="0"
     inkscape:deskcolor="#d1d1d1"
     inkscape:document-units="mm"
     inkscape:zoom="1.4142136"
     inkscape:cx="342.94679"
     inkscape:cy="223.09219"
     inkscape:window-width="1920"
     inkscape:window-height="991"
     inkscape:window-x="-9"
     inkscape:window-y="-9"
     inkscape:window-maximized="1"
     inkscape:current-layer="layer2" /><defs
     id="defs1" /><g
     inkscape:label="Capa 1"
     inkscape:groupmode="layer"
     id="layer1"
     transform="translate(-20.115827,-3.040869)"><g
       inkscape:groupmode="layer"
       id="layer2"
       inkscape:label="cabeza"
       style="display:inline"><path
         id="path78"
         style="fill:#1b0606;fill-opacity:1;stroke:#000000;stroke-width:0.2;stroke-linecap:round;stroke-linejoin:round;stroke-dasharray:none;stroke-opacity:1"
         d="m 25.100793,3.1408936 c -1.344771,0.00731 -2.331672,1.6238113 -2.8236,2.7300659 -0.457631,1.0291323 -0.226831,1.9412875 -0.507462,3.8121704 -0.192666,1.2844331 -0.966321,2.1726161 -1.553911,3.1326251 0.24936,0.01611 0.495851,0.06833 0.740524,0.131775 0.0546,0.017 0.109284,0.03393 0.163814,0.05116 0.116219,0.03671 0.240338,0.08937 0.362768,0.102836 0.0083,9.1e-4 -0.01472,-0.0073 -0.02222,-0.01085 0.217098,-0.01879 0.435405,-0.02686 0.65319,-0.03566 0.312567,-0.02764 0.625523,-0.04816 0.93896,-0.06253 0.401081,-0.03307 0.797824,0.03649 1.188558,0.118855 0.344206,0.07514 0.689472,0.144642 1.04128,0.168982 0.251269,0.01398 0.502235,-0.02931 0.751893,-0.05529 0.314368,-0.03107 0.630373,-0.04411 0.945678,-0.06201 0.401513,-0.0169 0.802356,-0.04001 1.203028,-0.0708 0.268932,-0.02247 0.538029,-0.03826 0.807702,-0.04806 0.121274,-0.02277 0.240723,-0.04986 0.358635,-0.0863 0.126552,-0.03911 0.244924,-0.06271 0.35605,-0.07493 C 29.61962,12.429769 29.618,12.047272 29.73514,11.771889 30.692422,9.5213408 30.181049,5.4494276 29.057141,4.4431396 27.286844,2.8581104 26.311572,3.5599894 26.311572,3.5599894 25.881854,3.2632791 25.47733,3.1388478 25.100793,3.1408936 Z" /><path
         id="path46"
         style="display:inline;fill:#865714;fill-opacity:1;stroke:#000000;stroke-width:0.2;stroke-linecap:round;stroke-linejoin:round;stroke-dasharray:none;stroke-opacity:1"
         d="m 27.829309,11.412223 c 0,0 -0.514532,0.280847 -2.104781,0.421163 -1.59025,0.140317 -1.824178,-0.280603 -1.824178,-0.280603 0,0 -0.138354,0.662435 -0.388607,1.444873 0.245183,0.01998 0.488668,0.06289 0.729671,0.113688 0.344206,0.07514 0.689472,0.144642 1.04128,0.168982 0.251269,0.01398 0.502235,-0.02931 0.751893,-0.05529 0.314368,-0.03107 0.630373,-0.04411 0.945678,-0.06201 0.401513,-0.0169 0.802356,-0.04001 1.203028,-0.0708 0.03942,-0.0033 0.07891,-0.0053 0.118339,-0.0083 -0.287313,-0.812149 -0.472323,-1.671733 -0.472323,-1.671733 z" /><ellipse
         style="fill:#865714;fill-opacity:1;stroke:#000000;stroke-width:0.200333;stroke-linecap:round;stroke-linejoin:round;stroke-dasharray:none;stroke-opacity:1"
         id="path48"
         cx="26.250879"
         cy="8.7580872"
         rx="3.1452615"
         ry="4.0573187" /><g
         id="g97"><path
           id="path97"
           style="display:inline;fill:#ffffff;stroke:#000000;stroke-width:0.05;stroke-linecap:round;stroke-linejoin:round"
           d="m 25.507487,8.5617514 c 0,0 -0.231363,0.186035 -0.516764,0.1860351 -0.285401,10e-8 -0.516765,-0.1860351 -0.516765,-0.1860351 0,0 0.231364,-0.1860353 0.516765,-0.1860352 0.285401,1e-7 0.516764,0.1860352 0.516764,0.1860352 z"
           sodipodi:nodetypes="cscsc" /><ellipse
           style="fill:#865714;fill-opacity:1;stroke:#000000;stroke-width:0.135436;stroke-linecap:round;stroke-linejoin:round;stroke-dasharray:none;stroke-opacity:1"
           id="path49"
           cx="25.145763"
           cy="8.5736885"
           rx="0.067188986"
           ry="0.078387149" /></g><path
         style="fill:none;fill-opacity:1;stroke:#000000;stroke-width:0.2;stroke-linecap:round;stroke-linejoin:round;stroke-dasharray:none;stroke-opacity:1"
         d="m 24.517548,7.6832918 c 0.529167,-0.1653646 0.926042,-0.016536 1.058333,0.1653646 0.132292,0.181901 0.115756,0.396875 0.297657,0.5291666"
         id="path76" /><path
         style="fill:#1b0606;fill-opacity:1;stroke:#000000;stroke-width:0.2;stroke-linecap:round;stroke-linejoin:round;stroke-dasharray:none;stroke-opacity:1"
         d="m 26.31753,4.3861738 c 0.535057,2.065053 3.609254,1.825036 3.431558,1.5504147"
         id="path79"
         sodipodi:nodetypes="cc" /><path
         style="fill:#1b0606;fill-opacity:1;stroke:#000000;stroke-width:0.2;stroke-linecap:round;stroke-linejoin:round;stroke-dasharray:none;stroke-opacity:1"
         d="m 26.19908,4.051919 c 0.698194,-0.095498 0.1481,2.6360614 -2.842894,1.789463"
         id="path80"
         sodipodi:nodetypes="cc" /><g
         id="g113"
         transform="translate(0.03307292,0.33072917)"><path
           style="fill:#fffefd;fill-opacity:1;stroke:#000000;stroke-width:0.109542;stroke-linecap:round;stroke-linejoin:round;stroke-dasharray:none;stroke-opacity:1"
           d="m 27.253341,10.205687 c -0.293018,0.13326 -0.396435,0.190371 -0.637743,0.13326 -0.24131,-0.05711 -0.318873,-0.266519 -0.672219,-0.314111 -0.353345,-0.047592 -0.732544,0.104703 -0.784253,0.361704 -0.05171,0.257 0.439526,0.533037 0.654981,0.533037 0.215455,0 0.603272,-0.133259 0.741163,-0.104703 0.13789,0.02856 0.258545,0.152297 0.473999,0.152297 0.215454,0 0.491236,-0.142779 0.482618,-0.352186 -0.0087,-0.209407 -0.258546,-0.409297 -0.258546,-0.409298 z"
           id="path88"
           sodipodi:nodetypes="csssscscc" /><g
           id="g95"
           style="fill:none"
           transform="matrix(1.0423238,0,0,1.1512165,-1.1693889,-1.6639094)"><path
             style="fill:none;fill-opacity:1;stroke:#000000;stroke-width:0.01;stroke-linecap:round;stroke-linejoin:round;stroke-dasharray:none;stroke-opacity:1"
             d="m 25.466146,10.442773 c 0.330729,0.115756 0.876432,0.165365 1.083138,0.198438 0.206705,0.03307 0.711067,0.04134 0.79375,-0.01654"
             id="path89" /><path
             style="fill:none;fill-opacity:1;stroke:#000000;stroke-width:0.01;stroke-linecap:round;stroke-linejoin:round;stroke-dasharray:none;stroke-opacity:1"
             d="m 25.780338,10.302213 c 0.05788,0.338998 -0.04961,0.438217 -0.04961,0.438217"
             id="path90" /><path
             style="fill:none;fill-opacity:1;stroke:#000000;stroke-width:0.01;stroke-linecap:round;stroke-linejoin:round;stroke-dasharray:none;stroke-opacity:1"
             d="m 26.077994,10.335286 c 0.03307,0.148828 -0.08268,0.446485 -0.08268,0.446485"
             id="path91" /><path
             style="fill:none;fill-opacity:1;stroke:#000000;stroke-width:0.01;stroke-linecap:round;stroke-linejoin:round;stroke-dasharray:none;stroke-opacity:1"
             d="m 26.342578,10.393164 c 0.09922,0.190169 -0.04134,0.388607 -0.04134,0.388607"
             id="path92" /><path
             style="fill:none;fill-opacity:1;stroke:#000000;stroke-width:0.01;stroke-linecap:round;stroke-linejoin:round;stroke-dasharray:none;stroke-opacity:1"
             d="m 26.631966,10.500651 c 0.05788,0.181901 -0.0083,0.256315 -0.0083,0.256315"
             id="path93" /><path
             style="fill:none;fill-opacity:1;stroke:#000000;stroke-width:0.01;stroke-linecap:round;stroke-linejoin:round;stroke-dasharray:none;stroke-opacity:1"
             d="m 26.896549,10.566797 c 0.07441,0.148828 -0.0083,0.248047 -0.0083,0.248047"
             id="path94" /><path
             style="fill:none;fill-opacity:1;stroke:#000000;stroke-width:0.01;stroke-linecap:round;stroke-linejoin:round;stroke-dasharray:none;stroke-opacity:1"
             d="m 27.12806,10.533724 c 0.09095,0.148828 0,0.330729 0,0.330729"
             id="path95" /></g></g><path
         style="fill:none;fill-opacity:1;stroke:#000000;stroke-width:0.11;stroke-linecap:round;stroke-linejoin:round;stroke-dasharray:none;stroke-opacity:1"
         d="m 26.202018,9.6986327 c 0.214974,0.107487 0.405143,0.2397786 0.504362,0.049609 C 26.8056,9.5580724 26.466602,9.0041011 26.466602,9.0041011"
         id="path96" /><g
         id="g98"
         transform="translate(2.4906179,0.02338608)"><path
           id="path98"
           style="display:inline;fill:#ffffff;stroke:#000000;stroke-width:0.05;stroke-linecap:round;stroke-linejoin:round"
           d="m 25.507487,8.5617514 c 0,0 -0.231363,0.186035 -0.516764,0.1860351 -0.285401,10e-8 -0.516765,-0.1860351 -0.516765,-0.1860351 0,0 0.231364,-0.1860353 0.516765,-0.1860352 0.285401,1e-7 0.516764,0.1860352 0.516764,0.1860352 z"
           sodipodi:nodetypes="cscsc" /><ellipse
           style="fill:#865714;fill-opacity:1;stroke:#000000;stroke-width:0.135436;stroke-linecap:round;stroke-linejoin:round;stroke-dasharray:none;stroke-opacity:1"
           id="ellipse98"
           cx="25.145763"
           cy="8.5736885"
           rx="0.067188986"
           ry="0.078387149" /></g><path
         style="fill:none;fill-opacity:1;stroke:#000000;stroke-width:0.2;stroke-linecap:round;stroke-linejoin:round;stroke-dasharray:none;stroke-opacity:1"
         d="M 28.025058,7.741757 C 27.495891,7.5763924 27.099016,7.725221 26.966725,7.9071216 26.834433,8.0890226 26.850969,8.3039966 26.669068,8.4362882"
         id="path99" /><path
         id="path106"
         style="fill:none;fill-opacity:1;stroke:#000000;stroke-width:0.1;stroke-linecap:round;stroke-linejoin:round;stroke-dasharray:none;stroke-opacity:1"
         d="m 22.688021,10.583333 -1.276925,2.505274 c 0.02396,0.0052 0.04793,0.01029 0.07183,0.01292 0.0083,9.1e-4 -0.01472,-0.0073 -0.02222,-0.01085 0.04294,-0.0037 0.08617,-0.0058 0.129191,-0.0088 0.628025,-1.036348 1.098124,-2.19939 1.098124,-2.498556 z" /><path
         id="path112"
         style="fill:none;fill-opacity:1;stroke:#000000;stroke-width:0.1;stroke-linecap:round;stroke-linejoin:round;stroke-dasharray:none;stroke-opacity:1"
         d="m 29.038021,11.972396 c 0,0 0.06911,0.386923 0.299206,0.989087 0.0041,-0.0013 0.0083,-0.0023 0.0124,-0.0036 0.0053,-0.0016 0.01025,-0.0026 0.0155,-0.0041 z" /><path
         style="fill:none;fill-opacity:1;stroke:#000000;stroke-width:0.1;stroke-linecap:round;stroke-linejoin:round;stroke-dasharray:none;stroke-opacity:1"
         d="m 27.417448,4.729427 c 0.297656,0.3638021 1.190625,0.7276042 1.190625,0.7276042"
         id="path113" /></g></g></svg>
