<?xml version="1.0" encoding="UTF-8" standalone="no"?>
<!-- Created with Inkscape (http://www.inkscape.org/) -->

<svg
   width="100"
   height="100"
   viewBox="0 0 26.458333 26.458333"
   version="1.1"
   id="svg1"
   inkscape:version="1.3.2 (091e20e, 2023-11-25, custom)"
   sodipodi:docname="runner1.svg"
   xmlns:inkscape="http://www.inkscape.org/namespaces/inkscape"
   xmlns:sodipodi="http://sodipodi.sourceforge.net/DTD/sodipodi-0.dtd"
   xmlns="http://www.w3.org/2000/svg"
   xmlns:svg="http://www.w3.org/2000/svg">
  <sodipodi:namedview
     id="namedview1"
     pagecolor="#ffffff"
     bordercolor="#000000"
     borderopacity="0.25"
     inkscape:showpageshadow="2"
     inkscape:pageopacity="0.0"
     inkscape:pagecheckerboard="false"
     inkscape:deskcolor="#d1d1d1"
     inkscape:document-units="mm"
     inkscape:zoom="5.8906966"
     inkscape:cx="60.604038"
     inkscape:cy="52.710235"
     inkscape:window-width="1920"
     inkscape:window-height="991"
     inkscape:window-x="-9"
     inkscape:window-y="-9"
     inkscape:window-maximized="1"
     inkscape:current-layer="g16" />
  <defs
     id="defs1" />
  <g
     inkscape:label="Capa 1"
     inkscape:groupmode="layer"
     id="layer1">
    <g
       id="g15">
      <path
         style="fill:#d40000;fill-opacity:1;stroke:#311b1b;stroke-width:0.2;stroke-linejoin:round;stroke-dasharray:none;stroke-opacity:1"
         d="M 19.745182,5.6346799 5.649287,5.5923618 C 5.636731,5.6593288 6.821265,2.7916196 9.2499211,1.3856324 11.079267,0.32659502 13.779819,0.32191502 16.061637,1.4734794 c 1.297014,0.6545637 2.330256,2.1763291 3.683545,4.1612005 z"
         id="path2"
         sodipodi:nodetypes="ccssc" />
      <path
         style="fill:#800000;fill-opacity:1;stroke:#311b1b;stroke-width:0.2;stroke-linejoin:round;stroke-dasharray:none;stroke-opacity:1"
         d="m 5.67549,5.5711598 c 0,0 -2.445522,-0.06352 -2.858402,-0.9210407 C 2.404208,3.7925984 6.564771,3.8243585 6.564771,3.8243585 Z"
         id="path3" />
    </g>
    <g
       id="g14">
      <path
         style="fill:#d6b688;fill-opacity:1;stroke:#311b1b;stroke-width:0.2;stroke-linejoin:round;stroke-dasharray:none;stroke-opacity:1"
         id="path1"
         sodipodi:type="arc"
         sodipodi:cx="4.0989242"
         sodipodi:cy="16.009371"
         sodipodi:rx="8.3375969"
         sodipodi:ry="8.5526056"
         sodipodi:start="0"
         sodipodi:end="4.3843739"
         sodipodi:arc-type="chord"
         d="M 12.436521,16.009371 A 8.3375969,8.5526056 0 0 1 5.008728,24.510905 8.3375969,8.5526056 0 0 1 -4.040116,17.864756 8.3375969,8.5526056 0 0 1 1.4128458,7.9127586 Z"
         sodipodi:open="true"
         transform="rotate(-36.622488)" />
      <ellipse
         style="fill:#ffffff;fill-opacity:1;stroke:#311b1b;stroke-width:0.2;stroke-linejoin:round;stroke-dasharray:none;stroke-opacity:1"
         id="ellipse31"
         cx="16.739483"
         cy="9.2832289"
         rx="1.6038812"
         ry="0.58756047" />
      <ellipse
         style="fill:#000000;fill-opacity:1;stroke:#311b1b;stroke-width:0.2;stroke-linejoin:round;stroke-dasharray:none;stroke-opacity:1"
         id="path25"
         cx="16.686094"
         cy="9.2525845"
         rx="0.40423912"
         ry="0.42669684" />
      <ellipse
         style="fill:#ffffff;fill-opacity:1;stroke:#311b1b;stroke-width:0.2;stroke-linejoin:round;stroke-dasharray:none;stroke-opacity:1"
         id="path30"
         cx="9.9805927"
         cy="9.156189"
         rx="1.6038812"
         ry="0.58756047" />
      <ellipse
         style="fill:#000000;fill-opacity:1;stroke:#311b1b;stroke-width:0.2;stroke-linejoin:round;stroke-dasharray:none;stroke-opacity:1"
         id="path26"
         cx="9.9712315"
         cy="9.1178379"
         rx="0.51652777"
         ry="0.49407002" />
      <path
         style="fill:none;fill-opacity:1;stroke:#311b1b;stroke-width:0.2;stroke-linejoin:round;stroke-dasharray:none;stroke-opacity:1"
         d="m 16.079734,16.099439 c 0,0 -3.86273,0.561443 -4.64875,0.112289 -0.786021,-0.449155 -1.5720409,-0.786021 -0.898309,-1.077971"
         id="path27" />
      <path
         style="fill:none;fill-opacity:1;stroke:#311b1b;stroke-width:0.2;stroke-linejoin:round;stroke-dasharray:none;stroke-opacity:1"
         d="m 12.643702,11.621875 c 0,0 0.606359,0.123517 1.077971,0 0.471612,-0.123518 -0.538986,-1.235175 -0.538986,-1.6394145"
         id="path28" />
      <path
         style="fill:#000000;fill-opacity:1;stroke:#311b1b;stroke-width:0.2;stroke-linejoin:round;stroke-dasharray:none;stroke-opacity:1"
         d="m 11.969969,11.880139 2.200858,0.134746 c 0,0 0.381781,0.370553 0.59513,0.909538 0.213348,0.538985 -0.583901,0.03369 -0.583901,0.03369 0,0 -0.06737,0.179661 -0.190891,0.19089 -0.123517,0.01123 -0.235806,-0.224577 -0.235806,-0.224577 0,0 -0.20212,0.336866 -0.30318,0.190891 -0.101059,-0.145975 -0.19291,-0.228684 -0.19291,-0.228684 0,0 -0.04764,0.42082 -0.24614,0.28584 -0.1985,-0.13498 -0.21438,-0.26996 -0.21438,-0.26996 0,0 -0.1191,0.3176 -0.26996,0.25408 -0.15086,-0.06352 -0.2779,-0.26202 -0.2779,-0.26202 0,0 -0.14292,0.40494 -0.33348,0.2382 -0.190561,-0.16674 0.05256,-1.252631 0.05256,-1.252631 z"
         id="path29" />
    </g>
    <g
       id="g13"
       style="display:none">
      <path
         style="fill:none;stroke:#0c0606;stroke-width:0.4;stroke-linejoin:round"
         d="m 11.482184,7.9486474 c 0,0 1.133124,-0.5628456 2.609965,-0.6581258"
         id="path7"
         sodipodi:nodetypes="cc" />
      <path
         style="fill:none;stroke:#0c0606;stroke-width:0.4;stroke-linejoin:round"
         d="m 20.271843,8.078412 c 0,0 -1.133124,-0.5628456 -2.609965,-0.6581258"
         id="path10"
         sodipodi:nodetypes="cc" />
    </g>
  </g>
</svg>
