<?xml version="1.0" encoding="UTF-8" standalone="no"?>
<!-- Created with Inkscape (http://www.inkscape.org/) -->

<svg
   width="46.994766"
   height="41.91399"
   viewBox="0 0 12.434032 11.089743"
   version="1.1"
   id="svg1"
   xml:space="preserve"
   xmlns="http://www.w3.org/2000/svg"
   xmlns:svg="http://www.w3.org/2000/svg"><defs
     id="defs1" /><g
     id="layer1"
     transform="translate(-20.739111,-0.36345587)"><g
       id="g31"
       style="stroke-width:0.1;stroke-dasharray:none"><path
         style="fill:#eaee2d;fill-opacity:1;stroke:#000000;stroke-width:0.124743;stroke-linecap:round;stroke-linejoin:round;stroke-dasharray:none;stroke-opacity:1"
         d="M 29.465231,2.5156696 C 29.15581,1.4636421 28.297169,0.52049608 27.299291,0.43224276 26.079719,0.32438268 24.885817,1.6080382 24.246348,2.4744137 23.606881,3.3407893 22.678622,5.2591923 22.369202,6.1874518 22.059782,7.1157113 20.801474,10.808121 20.801474,10.808121 l 1.175796,-1.052027 0.04126,1.031398 0.948888,-1.1139089 0.288788,1.1757949 0.907631,-0.9488896 1.134539,0.9901446 -0.804492,-4.7650654 z"
         id="path25" /><path
         id="path18"
         style="fill:#d6b688;stroke:#000000;stroke-width:0.124743;stroke-linecap:round;stroke-linejoin:round"
         d="m 30.420544,9.1809457 c -0.654566,0.9121803 -1.464812,1.9653023 -2.566605,2.1811193 -0.626501,0.122718 -1.34928,-0.166134 -1.819478,-0.597963 -0.854375,-0.7846562 -1.153094,-2.0610773 -1.363353,-3.2018804 -0.169454,-0.9194011 -0.31608,-1.8719824 0.106608,-2.802633 1.324586,-2.9163887 3.021883,-3.0677893 5.388996,-1.9926777 2.367115,1.0751114 1.462,2.0989395 1.488909,3.3077852 0.0248,1.1139849 -0.585451,2.2009519 -1.235077,3.1062496 z" /><g
         id="g28"
         transform="matrix(1.1056161,-0.09766992,0.09766992,1.1056161,-5.8866013,1.092261)"
         style="stroke-width:0.1;stroke-dasharray:none"><path
           style="fill:#ffffff;fill-opacity:1;stroke:#000000;stroke-width:0.0224777;stroke-linecap:round;stroke-linejoin:round;stroke-dasharray:none;stroke-opacity:1"
           d="m 28.158248,7.3579957 c 0,0 0.674574,0.00829 0.987856,0.1169348 0.20581,0.071371 0.557199,0.3414558 0.557199,0.3414558 0,0 -0.608938,0.1615833 -0.894636,0.074077 -0.273528,-0.083775 -0.650419,-0.5324682 -0.650419,-0.5324676 z"
           id="path22" /><path
           id="path24"
           style="stroke:#0cc6b7;stroke-width:0.1327;stroke-linecap:round;stroke-linejoin:round;stroke-dasharray:none"
           d="M 29.093069,7.6450612 A 0.18078636,0.17632363 0 0 1 28.912283,7.8213849 0.18078636,0.17632363 0 0 1 28.731497,7.6450612 0.18078636,0.17632363 0 0 1 28.912283,7.4687376 0.18078636,0.17632363 0 0 1 29.093069,7.6450612 Z" /></g><g
         id="g30"
         transform="matrix(1.0337255,-0.06655721,0.06655721,1.0337255,-3.1159918,0.3457956)"
         style="stroke-width:0.1;stroke-dasharray:none"><path
           style="fill:#ff0008;fill-opacity:1;stroke:#000000;stroke-width:0.0883253;stroke-linecap:round;stroke-linejoin:round;stroke-dasharray:none;stroke-opacity:1"
           d="m 28.126794,10.731848 2.061677,0.529118 c 0.05547,0.09497 -0.72348,0.383308 -1.177862,0.269292 -0.432895,-0.108623 -0.858055,-0.578793 -0.883815,-0.79841 z"
           id="path20" /><path
           style="fill:#ff0008;fill-opacity:1;stroke:#000000;stroke-width:0.0883253;stroke-linecap:round;stroke-linejoin:round;stroke-dasharray:none;stroke-opacity:1"
           d="m 29.140378,11.202509 c 0.307613,0.07575 1.151849,0.03924 1.151849,0.03924 0,0 -0.430206,-0.334421 -0.643402,-0.391652 -0.213201,-0.05723 -0.467596,0.115082 -0.467596,0.115082 0,0 -0.05013,-0.185799 -0.264358,-0.263782 -0.214229,-0.07798 -0.824774,-0.0088 -0.824774,-0.0088 0.289388,0.241878 0.69228,0.39838 1.048281,0.509915 z"
           id="path19" /></g><path
         style="fill:none;fill-opacity:1;stroke:#000000;stroke-width:0.0893359;stroke-linecap:round;stroke-linejoin:round;stroke-dasharray:none;stroke-opacity:1"
         d="M 28.248053,7.2277063 C 28.355767,7.6864989 28.512756,8.5833674 28.390094,8.63538 28.267422,8.687397 27.833613,8.668724 27.698773,8.5067544"
         id="path21" /><path
         style="fill:none;fill-opacity:1;stroke:#000000;stroke-width:0.124743;stroke-linecap:round;stroke-linejoin:round;stroke-dasharray:none;stroke-opacity:1"
         d="m 27.466304,5.8204503 c -0.05177,-0.128001 -1.346938,0.4583261 -1.614383,0.2294501"
         id="path26" /><path
         style="fill:none;fill-opacity:1;stroke:#000000;stroke-width:0.124743;stroke-linecap:round;stroke-linejoin:round;stroke-dasharray:none;stroke-opacity:1"
         d="m 28.866732,6.5557601 c 0.709713,-0.1753577 1.320012,-0.029971 1.320012,-0.029971"
         id="path27" /><path
         style="fill:#eaee2d;fill-opacity:1;stroke:#000000;stroke-width:0.124743;stroke-linecap:round;stroke-linejoin:round;stroke-dasharray:none;stroke-opacity:1"
         d="m 28.492553,3.4510077 c 0.247537,0.8251196 0.972678,1.4884506 1.36461,1.7256725 0.203152,0.1229599 1.15497,0.9871174 1.321151,1.369796 0.182539,0.4203519 0.130004,0.7719638 0.330507,1.1015247 0.536847,0.8824059 1.601952,1.1897402 1.601952,1.1897402 C 33.025898,9.0734919 32.561882,5.6410325 31.896396,4.1816574 31.54073,3.4017 31.225212,2.4110063 30.443165,2.0599585 29.938189,1.8332829 28.795858,2.2692961 28.795858,2.2692961 c 0,0 -1.130898,-0.6334936 -1.754417,-0.6509439 -0.479004,-0.013407 -0.980292,0.164548 -1.373656,0.4239102 -0.393363,0.2593623 -1.029923,0.727819 -1.366882,1.2434176 -0.451711,0.6911862 -0.718869,2.0792284 -0.791067,2.3473923 -0.0722,0.2681638 -1.520127,2.6687701 -1.520127,2.6687701 0,0 1.605552,-0.8222663 2.542221,-2.3928042 0.391402,-0.656273 1.449631,-0.9209836 2.018087,-1.1959834 0.695104,-0.3362672 1.612603,-0.7446384 1.942536,-1.2620471 z"
         id="path8" /><g
         id="g23"
         transform="matrix(1.0874987,-0.2219749,0.2219749,1.0874987,-3.6408117,5.2459006)"
         style="stroke-width:0.1;stroke-dasharray:none"><path
           style="fill:#ffffff;fill-opacity:1;stroke:#000000;stroke-width:0.0224777;stroke-linecap:round;stroke-linejoin:round;stroke-dasharray:none;stroke-opacity:1"
           d="m 28.158248,7.3579957 c 0,0 0.46872,-0.012369 0.692333,0.04678 0.305129,0.08071 0.852722,0.4116109 0.852722,0.4116109 0,0 -0.608938,0.1615833 -0.894636,0.074077 C 28.535139,7.8066882 28.158248,7.357995 28.158248,7.3579957 Z"
           id="path11" /><path
           id="path23"
           style="stroke:#0cc6b7;stroke-width:0.1327;stroke-linecap:round;stroke-linejoin:round;stroke-dasharray:none"
           d="M 29.063664,7.661121 A 0.18078636,0.17632363 0 0 1 28.882878,7.8374447 0.18078636,0.17632363 0 0 1 28.702092,7.661121 0.18078636,0.17632363 0 0 1 28.882878,7.4847974 0.18078636,0.17632363 0 0 1 29.063664,7.661121 Z" /></g><path
         style="fill:none;fill-opacity:1;stroke:#000000;stroke-width:0.124743;stroke-linecap:round;stroke-linejoin:round;stroke-dasharray:none;stroke-opacity:1"
         d="M 29.675145,3.3710106 C 29.882611,4.3336994 30.8098,4.975492 30.842038,4.975492"
         id="path29" /><path
         style="fill:none;fill-opacity:1;stroke:#000000;stroke-width:0.124743;stroke-linecap:round;stroke-linejoin:round;stroke-dasharray:none;stroke-opacity:1"
         d="m 24.934634,4.6400094 c 1.108547,-0.058345 1.86703,-0.8751715 1.86703,-0.8751715"
         id="path30" /><path
         style="fill:none;fill-opacity:1;stroke:#000000;stroke-width:0.124743;stroke-linecap:round;stroke-linejoin:round;stroke-dasharray:none;stroke-opacity:1"
         d="M 22.892566,9.190902 23.33015,7.9656614"
         id="path35" /><path
         style="fill:none;fill-opacity:1;stroke:#000000;stroke-width:0.124743;stroke-linecap:round;stroke-linejoin:round;stroke-dasharray:none;stroke-opacity:1"
         d="M 23.855254,9.3221772 24.278253,7.7031097"
         id="path36" /></g><path
       style="display:none;fill:#e8ff00;fill-opacity:1;stroke:#060606;stroke-width:0.1;stroke-linecap:round;stroke-linejoin:round;stroke-dasharray:none;stroke-opacity:1"
       d="M 31.370426,5.2786903 C 31.13844,5.7252611 30.039148,5.1064181 29.079773,5.5215559 28.104881,5.9434079 27.120787,6.7039155 26.872046,7.0573505 26.212918,7.9939027 23.851917,6.6945221 23.851917,6.6945221 c 0,0 3.168656,-1.0390534 3.664749,-1.5516836 0.496094,-0.5126302 2.067058,-1.8520834 3.075782,-1.7197917 0.406437,0.053303 1.140817,-0.031966 1.240979,0.3211364 0.148427,0.523253 -0.463001,1.5345071 -0.463001,1.5345071 z"
       id="path28" /><path
       style="display:none;fill:#e8ff00;fill-opacity:1;stroke:#060606;stroke-width:0.1;stroke-linecap:round;stroke-linejoin:round;stroke-dasharray:none;stroke-opacity:1"
       d="m 31.396149,5.243318 c -0.203779,0.4601274 0.966193,0.9319062 1.241372,1.9403783 0.279631,1.0247831 0.300571,2.2683161 0.179985,2.683343 -0.319537,1.0997617 2.170046,2.1316007 2.170046,2.1316007 0,0 -1.168175,-3.1233602 -1.077807,-3.830984 0.09037,-0.7076247 0.154869,-2.7710932 -0.5786,-3.4761099 C 33.035614,4.4074793 32.643415,3.7807698 32.305122,3.9231481 31.803815,4.134135 31.396149,5.243318 31.396149,5.243318 Z"
       id="path31" /></g></svg>
