<?xml version="1.0" encoding="UTF-8" standalone="no"?>
<!-- Created with Inkscape (http://www.inkscape.org/) -->

<svg
   width="62.588413"
   height="65.118759"
   viewBox="0 0 16.559851 17.229338"
   version="1.1"
   id="svg1"
   inkscape:version="1.3.2 (091e20e, 2023-11-25, custom)"
   sodipodi:docname="runner3.svg"
   xmlns:inkscape="http://www.inkscape.org/namespaces/inkscape"
   xmlns:sodipodi="http://sodipodi.sourceforge.net/DTD/sodipodi-0.dtd"
   xmlns="http://www.w3.org/2000/svg"
   xmlns:svg="http://www.w3.org/2000/svg">
  <sodipodi:namedview
     id="namedview1"
     pagecolor="#ffffff"
     bordercolor="#000000"
     borderopacity="0.25"
     inkscape:showpageshadow="2"
     inkscape:pageopacity="0.0"
     inkscape:pagecheckerboard="false"
     inkscape:deskcolor="#d1d1d1"
     inkscape:document-units="mm"
     inkscape:zoom="5.8906966"
     inkscape:cx="50.927763"
     inkscape:cy="53.559031"
     inkscape:window-width="1920"
     inkscape:window-height="991"
     inkscape:window-x="-9"
     inkscape:window-y="-9"
     inkscape:window-maximized="1"
     inkscape:current-layer="g14" />
  <defs
     id="defs1" />
  <g
     inkscape:label="Capa 1"
     inkscape:groupmode="layer"
     id="layer1"
     transform="translate(-4.712173,-1.7505168)">
    <g
       id="g13"
       style="display:none">
      <path
         style="fill:none;stroke:#0c0606;stroke-width:0.4;stroke-linejoin:round"
         d="m 11.482184,7.9486474 c 0,0 1.133124,-0.5628456 2.609965,-0.6581258"
         id="path7"
         sodipodi:nodetypes="cc" />
      <path
         style="fill:none;stroke:#0c0606;stroke-width:0.4;stroke-linejoin:round"
         d="m 20.271843,8.078412 c 0,0 -1.133124,-0.5628456 -2.609965,-0.6581258"
         id="path10"
         sodipodi:nodetypes="cc" />
    </g>
    <g
       id="g14">
      <path
         style="fill:none;fill-opacity:1;stroke:#684a04;stroke-width:0.2;stroke-linejoin:round;stroke-dasharray:none;stroke-opacity:1"
         d="m 10.606527,2.6033871 c 0,0 0.12704,-0.7304806 1.016321,-0.6987206 0.88928,0.03176 1.20688,0.3176003 2.000881,2.0008815 0.666961,-1.3656809 0.412881,-1.6197611 1.048081,-1.9056014 0.635201,-0.2858402 1.302161,-0.1270401 1.302161,0.1905602"
         id="path39" />
      <path
         id="path1"
         style="fill:#edc996;fill-opacity:1;stroke:#311b1b;stroke-width:0.2;stroke-linejoin:round"
         transform="rotate(-36.622488)"
         d="m 11.581584,15.653736 c 0.268645,1.401069 0.110973,3.327068 -0.398228,4.4557 -1.17272,2.599305 -3.2271958,4.069567 -6.174628,4.401469 -4.22722297,0.476015 -8.1262898,-2.387752 -9.048844,-6.646149 -0.9225543,-4.258397 1.0160727,-7.527008 6.1277332,-8.1445729 2.7228815,-0.3289646 4.5203353,0.1638679 6.1759697,1.3015719 1.4524852,0.998106 2.9033201,2.469312 3.3179971,4.631981 z"
         sodipodi:nodetypes="sssssss" />
      <g
         id="g37"
         inkscape:label="ojo dcho"
         transform="translate(-2.6783531,0.03176003)">
        <ellipse
           style="fill:#ffffff;fill-opacity:1;stroke:#311b1b;stroke-width:0.2;stroke-linejoin:round;stroke-dasharray:none;stroke-opacity:1"
           id="ellipse31"
           cx="18.581017"
           cy="9.2832289"
           rx="1.6038812"
           ry="0.58756047" />
        <ellipse
           style="fill:#000000;fill-opacity:1;stroke:#311b1b;stroke-width:0.2;stroke-linejoin:round;stroke-dasharray:none;stroke-opacity:1"
           id="path25"
           cx="18.572544"
           cy="9.2525845"
           rx="0.40423912"
           ry="0.42669684" />
      </g>
      <g
         id="g36"
         inkscape:label="ojo izdo"
         transform="translate(-3.0594734,0.34936027)">
        <ellipse
           style="fill:#ffffff;fill-opacity:1;stroke:#311b1b;stroke-width:0.2;stroke-linejoin:round;stroke-dasharray:none;stroke-opacity:1"
           id="path30"
           cx="13.753491"
           cy="9.156189"
           rx="1.6038812"
           ry="0.58756047" />
        <ellipse
           style="fill:#000000;fill-opacity:1;stroke:#311b1b;stroke-width:0.2;stroke-linejoin:round;stroke-dasharray:none;stroke-opacity:1"
           id="path26"
           cx="13.699215"
           cy="9.1178379"
           rx="0.51652777"
           ry="0.49407002" />
        <path
           style="fill:none;stroke:#311b1b;stroke-width:0.458;stroke-linecap:round;stroke-linejoin:round;stroke-dasharray:none;stroke-dashoffset:7;stroke-opacity:1"
           d="m 12.536635,14.023586 c 0,0 2.919505,0.673732 3.727983,0.628816 0.808478,-0.04491 2.425434,-0.673731 2.425434,-0.673731"
           id="path2" />
      </g>
      <path
         style="fill:none;fill-opacity:1;stroke:#311b1b;stroke-width:0.2;stroke-linejoin:round;stroke-dasharray:none;stroke-opacity:1"
         d="m 13.635529,11.971235 c 0,0 -0.606359,0.123517 -1.077971,0 -0.471612,-0.123518 0.538986,-1.235175 0.538986,-1.639414"
         id="path28" />
      <path
         style="fill:none;fill-opacity:1;stroke:#684a04;stroke-width:0.35;stroke-linejoin:round;stroke-dasharray:none;stroke-opacity:1"
         d="m 17.744354,8.3968544 c 0,0 -0.322473,-0.9431755 -1.730656,-1.3723706"
         id="path43" />
      <path
         style="fill:none;fill-opacity:1;stroke:#684a04;stroke-width:0.35;stroke-linejoin:round;stroke-dasharray:none;stroke-opacity:1"
         d="m 8.7501052,8.2976602 c 0,0 1.1521126,-1.115263 2.1574908,-1.0032753"
         id="path44" />
      <path
         style="fill:#91383c;fill-opacity:1;stroke:#210c0c;stroke-width:0.198;stroke-linejoin:round;stroke-dasharray:none;stroke-opacity:1"
         d="m 6.7732855,20.692888 c 1.010598,0 1.315463,0.291015 1.610379,0.550545 0.328926,0.28946 1.289844,0.854746 1.6485215,0.501349 0.464375,-0.457537 -0.6002895,-1.203455 -1.0086125,-1.566632 -0.406215,-0.361302 -1.652103,-0.736551 -2.191088,-0.781466 -0.5389861,-0.04492 -1.6328637,0.246991 -1.9724277,0.49407 -0.4622,0.336314 -1.13106,0.869741 -0.973856,1.27398 0.157205,0.404239 0.781507,0.341848 1.073457,0.296932 0.291951,-0.04491 1.5665917,-0.768778 1.8136267,-0.768778 z"
         id="path47"
         sodipodi:nodetypes="sssscsscs" />
      <path
         style="fill:#632426;fill-opacity:1;stroke:none;stroke-width:0.259422;stroke-linejoin:round;stroke-dasharray:none;stroke-opacity:1"
         d="m 7.1508735,20.329859 c -0.247524,-0.371644 -0.04368,-0.728422 0.145603,-0.713556 0.189282,0.01487 0.199548,0.0595 0.199548,0.0595 0,0 0.01544,0.08673 -0.01284,0.113007 -0.02832,0.02628 -0.07207,0.08409 -0.03089,0.115628 0.04118,0.03154 0.105524,0.03943 0.113252,0.0026 0.0078,-0.03679 -0.01544,-0.0657 -0.01024,-0.09723 0.0052,-0.03153 -0.01024,-0.123505 0.02574,-0.13928 0.03604,-0.01577 0.138991,-0.08147 0.226504,0.0079 0.271574,0.137788 0.164831,0.723038 0.07087,0.698312 z"
         id="path48"
         sodipodi:nodetypes="ccccscscccc" />
      <path
         id="path46"
         style="fill:#f6000b;fill-opacity:1;stroke:none;stroke-width:0.0980001;stroke-linejoin:round;stroke-dasharray:none;stroke-opacity:1"
         d="m 7.3109745,20.144888 c -0.356319,0.0015 -0.824249,0.397093 -0.96666,0.773135 0,0 0.18492,-0.08588 0.333697,-0.15349 0.250381,-0.116332 0.428076,-0.142152 0.514107,-0.142152 1.093366,0 1.301888,0.302658 1.310922,0.262057 -0.08983,-0.247035 -0.609308,-0.593807 -1.036004,-0.717324 -0.05334,-0.01544 -0.10516,-0.02244 -0.156063,-0.02222 z"
         sodipodi:nodetypes="cccscscc" />
      <path
         style="fill:#2a7fff;fill-opacity:1;stroke:#000000;stroke-width:0.0905725;stroke-linecap:round;stroke-linejoin:round;stroke-dasharray:none;stroke-dashoffset:7;stroke-opacity:1"
         d="m 17.567685,9.4495227 c 0,0 -0.352264,0.7030113 -0.366129,0.8186183 -0.01222,0.101931 0.173202,0.295937 0.433451,0.279632 0.231467,-0.0145 0.32396,-0.181145 0.358312,-0.251352 0.05365,-0.10964 -0.425634,-0.8468983 -0.425634,-0.8468983 z"
         id="path3"
         sodipodi:nodetypes="csssc" />
    </g>
  </g>
</svg>
