<?xml version="1.0" encoding="UTF-8" standalone="no"?>
<!-- Created with Inkscape (http://www.inkscape.org/) -->

<svg
   width="100"
   height="100"
   viewBox="0 0 26.458333 26.458333"
   version="1.1"
   id="svg1"
   inkscape:version="1.3.2 (091e20e, 2023-11-25, custom)"
   sodipodi:docname="runner2.svg"
   xmlns:inkscape="http://www.inkscape.org/namespaces/inkscape"
   xmlns:sodipodi="http://sodipodi.sourceforge.net/DTD/sodipodi-0.dtd"
   xmlns="http://www.w3.org/2000/svg"
   xmlns:svg="http://www.w3.org/2000/svg">
  <sodipodi:namedview
     id="namedview1"
     pagecolor="#ffffff"
     bordercolor="#000000"
     borderopacity="0.25"
     inkscape:showpageshadow="2"
     inkscape:pageopacity="0.0"
     inkscape:pagecheckerboard="false"
     inkscape:deskcolor="#d1d1d1"
     inkscape:document-units="mm"
     inkscape:zoom="7.8429827"
     inkscape:cx="54.31607"
     inkscape:cy="50.809751"
     inkscape:window-width="1920"
     inkscape:window-height="991"
     inkscape:window-x="-9"
     inkscape:window-y="-9"
     inkscape:window-maximized="1"
     inkscape:current-layer="g59" />
  <defs
     id="defs1" />
  <g
     inkscape:label="Capa 1"
     inkscape:groupmode="layer"
     id="layer1">
    <g
       id="g58"
       style="display:inline"
       inkscape:label="cara"
       transform="matrix(1.0889387,0,0,1.0889387,-0.31093412,-2.4674177)">
      <path
         style="fill:#714507;fill-opacity:1;stroke:#311b1b;stroke-width:0.2;stroke-linejoin:round;stroke-dasharray:none;stroke-opacity:1"
         id="path1"
         sodipodi:type="arc"
         sodipodi:cx="4.0989242"
         sodipodi:cy="16.009371"
         sodipodi:rx="8.3375969"
         sodipodi:ry="8.5526056"
         sodipodi:start="0"
         sodipodi:end="4.3843739"
         sodipodi:arc-type="chord"
         d="M 12.436521,16.009371 A 8.3375969,8.5526056 0 0 1 5.008728,24.510905 8.3375969,8.5526056 0 0 1 -4.040116,17.864756 8.3375969,8.5526056 0 0 1 1.4128458,7.9127586 Z"
         sodipodi:open="true"
         transform="rotate(-36.622488)" />
      <ellipse
         style="fill:#ffffff;fill-opacity:1;stroke:#311b1b;stroke-width:0.2;stroke-linejoin:round;stroke-dasharray:none;stroke-opacity:1"
         id="ellipse31"
         cx="16.310284"
         cy="10.391562"
         rx="1.6038812"
         ry="0.33348027" />
      <ellipse
         style="fill:#ffffff;fill-opacity:1;stroke:#311b1b;stroke-width:0.2;stroke-linejoin:round;stroke-dasharray:none;stroke-opacity:1"
         id="ellipse5"
         cx="11.594161"
         cy="10.324189"
         rx="1.6038812"
         ry="0.33348027" />
      <ellipse
         style="fill:#000000;fill-opacity:1;stroke:#311b1b;stroke-width:0.156301;stroke-linejoin:round;stroke-dasharray:none;stroke-opacity:1"
         id="path26"
         cx="11.668745"
         cy="10.345837"
         rx="0.44854638"
         ry="0.34748659" />
      <path
         style="fill:none;fill-opacity:1;stroke:#311b1b;stroke-width:0.2;stroke-linejoin:round;stroke-dasharray:none;stroke-opacity:1"
         d="m 13.480869,13.000534 c 0,0 0.606359,0.123517 1.077971,0 0.471612,-0.123518 -0.538986,-1.235175 -0.538986,-1.639414"
         id="path28" />
      <path
         style="fill:none;fill-opacity:1;stroke:#311b1b;stroke-width:0.2;stroke-linejoin:round"
         d="m 10.871857,14.985402 c 1.048081,0.794 1.619761,0.3176 2.064401,0.25408 0.444641,-0.06352 0.889281,-0.1588 1.460962,-0.190561 0.57168,-0.03176 1.238641,0.508161 1.715041,0.381121 0.4764,-0.12704 1.270401,-0.73048 1.524481,-1.23864"
         id="path2"
         sodipodi:nodetypes="csssc" />
      <path
         style="fill:none;fill-opacity:1;stroke:#311b1b;stroke-width:0.2;stroke-linejoin:round"
         d="m 10.713057,15.398282 0.38112,-0.76224"
         id="path3" />
      <path
         style="fill:none;fill-opacity:1;stroke:#311b1b;stroke-width:0.2;stroke-linejoin:round"
         d="m 17.954342,14.540762 -0.6352,-0.571681"
         id="path5" />
      <ellipse
         style="fill:#000000;fill-opacity:1;stroke:#311b1b;stroke-width:0.156301;stroke-linejoin:round;stroke-dasharray:none;stroke-opacity:1"
         id="ellipse6"
         cx="16.407326"
         cy="10.368295"
         rx="0.44854638"
         ry="0.34748659" />
      <path
         style="fill:#bca909;fill-opacity:0.180392;stroke:#f90606;stroke-width:0;stroke-linejoin:round;stroke-dasharray:none;stroke-opacity:1"
         d="m 10.062861,10.31967 0.233155,0.0068 0.135163,0.09123"
         id="path59" />
    </g>
    <g
       id="g59"
       inkscape:label="pelo">
      <path
         style="fill:#522c14;fill-opacity:1;stroke:#311b1b;stroke-width:0.245531;stroke-linejoin:round"
         d="m 20.146742,15.700514 c 0.159325,0.684353 0.141621,1.104296 0.761214,1.679775 0.619592,0.575478 1.00905,0.793227 1.46932,0.933209 0.460268,0.13998 0.460268,-0.108872 0.47797,-0.171089 0.01771,-0.06221 0,-0.264409 -0.07081,-0.279963 -0.07081,-0.01556 -0.6727,-0.171088 -1.132968,-0.591031 -0.460269,-0.419944 -0.668716,-0.45435 -0.874824,-1.237169 -0.0708,-0.793227 -0.289359,-0.77675 -0.289359,-0.77675 z"
         id="path33"
         sodipodi:nodetypes="cssscsccc" />
      <path
         style="fill:#522c14;fill-opacity:1;stroke:#311b1b;stroke-width:0.267198;stroke-linejoin:round"
         d="m 19.200928,16.4425 c 0.09759,0.935547 0.566033,1.871094 0.566033,1.871094 0,0 1.132067,1.53697 1.659063,1.252964 0.526997,-0.284005 -0.117114,-0.584715 -0.117114,-0.584715 0,0 -0.663625,-0.568011 -0.858808,-0.902136 -0.195183,-0.334123 -0.758588,-1.450143 -0.700034,-1.884504 0.05856,-0.434361 -0.549143,0.247297 -0.549143,0.247297 z"
         id="path32"
         sodipodi:nodetypes="scscsccs" />
      <path
         id="path72"
         style="fill:#522c14;fill-opacity:1;stroke:#311b1b;stroke-width:0.245531;stroke-linejoin:round"
         d="m 12.866953,0.24941702 c -0.08609,-6.9224e-4 -0.17013,0.00196 -0.251538,0.007873 C 11.644003,0.49278876 11.241241,1.9218348 11.241241,1.9218348 10.166851,1.0728634 8.5430154,0.43843336 7.0669493,0.77443916 6.3015948,1.1865532 5.252849,2.1244795 4.6641149,3.1547647 4.0753805,4.1850496 3.6631142,4.5089453 2.9860699,6.4517686 2.3090255,8.3945918 1.7792003,10.366972 1.7497638,12.015427 c -0.029437,1.648457 0.1469464,4.179872 0.3235666,4.945225 0.1766204,0.765356 -0.064251,3.480528 0.1418066,3.657148 0.2060571,0.176619 0.6587134,0.862628 0.8148254,0.758553 0.2804144,0.04644 0.6787067,-3.514779 0.6347534,-5.255849 -0.08326,-1.01993 -0.1456931,-2.394074 0.041642,-3.247484 -0.050909,-1.161207 0.1405275,-1.183895 0.1333657,-2.344311 0,0 0.2354316,0.280101 0.2943051,1.7225 0.058873,1.442398 -0.2355309,2.148621 -0.088348,3.355527 0.1471837,1.206906 -0.1801717,4.046605 0.025885,4.605902 0.2060572,0.559298 0.3552674,2.096662 0.7968181,1.537363 0.4415508,-0.559296 0.4428645,-5.230525 0.4428645,-5.230525 0,0 0.1766954,-1.089249 0.1766954,-1.97235 0,-0.883101 0.088348,-2.443539 0.088348,-2.88509 0,-0.44155 0.1086064,-0.461434 0.1086064,-0.461434 0,0 0.1497215,0.607544 -0.029262,1.306646 -0.1436436,0.561069 -0.1541205,3.465244 0.3410112,4.478164 0.4418053,0.903827 -0.5704659,4.124097 -0.055147,4.391504 0.5204551,0.27007 1.2586402,-2.44823 1.2880767,-3.331331 0.029437,-0.883101 -0.084971,-1.887379 -0.084971,-1.887379 C 6.4664513,13.149362 6.8982358,9.6317774 7.4400358,6.4011233 10.853065,4.019302 14.956449,3.2697464 19.387807,3.2948831 c 0.02725,0.7575854 0.09261,0.8391579 0.690463,1.6386543 0.507768,0.67903 0.386323,0.7376539 0.803007,1.1147576 0.25818,0.2336546 0.525422,0.8315882 0.808636,0.6780832 C 21.906214,6.609141 21.644753,5.9856252 21.419243,5.6813985 21.17777,5.355645 20.938223,4.9651916 20.598227,4.5548237 20.33289,4.2345679 20.454936,4.0245472 20.325068,3.4224998 c 0.150077,-0.017954 0.0084,-0.037625 0.144818,0.027439 0.159325,0.6843516 0.395603,1.0898802 1.015196,1.6653587 0.619591,0.5754774 1.009005,0.7930156 1.469273,0.9329975 0.460269,0.1399797 0.460615,-0.1088514 0.478317,-0.1710684 0.01771,-0.062211 -9.1e-5,-0.2641207 -0.0709,-0.279674 C 23.290957,5.5819917 22.688709,5.4260712 22.228441,5.0061289 21.768172,4.5861856 21.486357,4.6032867 21.280249,3.8204679 20.944516,3.2185811 20.785052,2.9628755 20.785052,2.9628755 20.106206,1.6426662 18.222397,0.68520356 17.057564,0.71028846 16.145027,0.88690926 16.379481,1.8385516 16.379481,1.8385516 15.917791,0.99363636 14.158382,0.2597995 12.866953,0.24941702 Z"
         sodipodi:nodetypes="scccsssssccccsssscsscsssscccsssssccssccsccccs" />
      <path
         style="fill:none;fill-opacity:1;stroke:#311b1b;stroke-width:0.217788;stroke-linejoin:round"
         d="m 3.8102141,10.49948 c 0,0 -0.029437,-1.5895852 0.4562699,-2.7229007"
         id="path7" />
      <path
         style="fill:#800000;fill-opacity:1;stroke:#311b1b;stroke-width:0.217788;stroke-linejoin:round"
         d="m 5.6205757,11.132372 c 0,0 0.01472,-1.059725 0.2502127,-2.0311376"
         id="path9" />
      <path
         style="fill:none;fill-opacity:1;stroke:#311b1b;stroke-width:0.217788;stroke-linejoin:round"
         d="M 9.9624998,4.1558563 C 8.8144655,3.3610634 8.4612244,2.2424659 7.5486842,3.0372589 6.6361444,3.8320516 6.3712133,5.3627638 6.3712133,5.3627638"
         id="path10" />
      <path
         style="fill:none;fill-opacity:1;stroke:#311b1b;stroke-width:0.217788;stroke-linejoin:round"
         d="m 6.9010754,2.1247188 c 0,0 -1.059724,0.7359195 -1.3835284,2.2666315"
         id="path11" />
      <path
         style="fill:none;fill-opacity:1;stroke:#311b1b;stroke-width:0.217788;stroke-linejoin:round"
         d="M 5.4292366,6.4519246 C 4.9288115,7.2761542 4.7816277,8.9834874 4.7816277,8.9834874"
         id="path12" />
      <path
         style="fill:none;fill-opacity:1;stroke:#311b1b;stroke-width:0.217788;stroke-linejoin:round"
         d="M 15.673234,2.7428911 C 15.172809,2.0364086 15.172809,2.0364086 15.172809,2.0364086 c 0,0 -0.382678,-1.08916074 -1.324655,-0.6476091"
         id="path25" />
      <path
         style="fill:none;fill-opacity:1;stroke:#311b1b;stroke-width:0.217788;stroke-linejoin:round"
         d="M 13.465476,3.155006 C 13.288856,2.2719026 12.611809,1.9480982 12.464626,1.9480982"
         id="path27" />
      <path
         style="fill:none;fill-opacity:1;stroke:#311b1b;stroke-width:0.217788;stroke-linejoin:round"
         d="M 19.293956,2.6840175 C 19.146773,1.8892248 17.969302,1.5948571 17.969302,1.5948571"
         id="path29" />
      <path
         style="fill:#800000;fill-opacity:1;stroke:#311b1b;stroke-width:0.217788;stroke-linejoin:round"
         d="M 17.674934,3.0078222 C 17.527751,2.4779602 17.027325,2.2424659 17.027325,2.2424659"
         id="path30" />
      <path
         style="fill:none;fill-opacity:1;stroke:#311b1b;stroke-width:0.217788;stroke-linejoin:round"
         d="M 11.375465,3.5671209 C 11.522648,2.9783851 9.1971438,1.6537305 9.1971438,1.6537305"
         id="path31" />
      <path
         style="fill:none;stroke:#311b1b;stroke-width:0.217788;stroke-linejoin:round"
         d="m 2.1028813,12.074348 c 0,0 0.5887354,0.559299 1.1480342,0"
         id="path34" />
      <path
         style="fill:none;stroke:#311b1b;stroke-width:0.217788;stroke-linejoin:round"
         d="m 2.3383754,15.547888 c 0.2943678,0.500425 0.9419767,0.02943 0.9419767,0.02943"
         id="path35" />
      <path
         style="fill:none;stroke:#311b1b;stroke-width:0.217788;stroke-linejoin:round"
         d="m 4.3989495,12.95745 c 0.4415516,0.353242 0.8242297,0.05888 0.8242297,0.05888"
         id="path36" />
      <path
         style="fill:none;stroke:#311b1b;stroke-width:0.217788;stroke-linejoin:round"
         d="m 4.3400761,17.34353 c 0.4709883,0.382678 0.6770456,0.05888 0.6770456,0.05888"
         id="path37" />
      <path
         style="fill:none;stroke:#311b1b;stroke-width:0.217788;stroke-linejoin:round"
         d="m 5.8707881,14.811968 c 0.294368,0.294368 0.7653563,0.02943 0.7653563,0.02943"
         id="path38" />
      <path
         style="fill:none;fill-opacity:1;stroke:#311b1b;stroke-width:0.108894;stroke-linejoin:round;stroke-dasharray:none;stroke-opacity:1"
         d="m 20.048274,4.6121263 c 0.14986,0.081935 0.26546,-0.029283 0.3606,-0.040476"
         id="path73"
         sodipodi:nodetypes="cc" />
      <path
         style="fill:none;fill-opacity:1;stroke:#311b1b;stroke-width:0.108894;stroke-linejoin:round;stroke-dasharray:none;stroke-opacity:1"
         d="m 21.344411,4.7371542 c 0.145704,0.046833 0.226363,-0.080658 0.226363,-0.080658"
         id="path74" />
      <path
         style="fill:none;fill-opacity:1;stroke:#311b1b;stroke-width:0.108894;stroke-linejoin:round;stroke-dasharray:none;stroke-opacity:1"
         d="m 20.657111,5.4291128 c 0.149859,0.081935 0.26546,-0.029283 0.3606,-0.040476"
         id="path75"
         sodipodi:nodetypes="cc" />
      <path
         style="fill:none;fill-opacity:1;stroke:#311b1b;stroke-width:0.108894;stroke-linejoin:round;stroke-dasharray:none;stroke-opacity:1"
         d="m 22.088545,5.3720099 c 0.145704,0.046833 0.226363,-0.080658 0.226363,-0.080658"
         id="path76" />
      <path
         style="fill:none;fill-opacity:1;stroke:#0c0606;stroke-width:0.4;stroke-linejoin:round;stroke-dasharray:none;stroke-opacity:1"
         d="m 10.828948,6.8482129 c 0,0 0.708435,0.8096411 2.496392,0.910846"
         id="path77"
         sodipodi:nodetypes="cc" />
      <path
         style="fill:none;fill-opacity:1;stroke:#0c0606;stroke-width:0.4;stroke-linejoin:round;stroke-dasharray:none;stroke-opacity:1"
         d="m 16.226554,7.7590589 c 0.02599,0.1386193 1.463361,-0.3367975 2.395187,0.033735"
         id="path78"
         sodipodi:nodetypes="cc" />
    </g>
  </g>
</svg>
